<svg xmlns="http://www.w3.org/2000/svg" version="1.1" xmlns:xlink="http://www.w3.org/1999/xlink" xmlns:svgjs="http://svgjs.dev/svgjs" width="1440" height="560" preserveAspectRatio="none" viewBox="0 0 1440 560"><g mask="url(&quot;#SvgjsMask4545&quot;)" fill="none"><rect width="1440" height="560" x="0" y="0" fill="url(&quot;#SvgjsLinearGradient4546&quot;)"></rect><path d="M453.34-6.15C338.85 9.64 273.81 275.68 87.4 276.34-99 277-180.61 138.7-278.53 136.34" stroke="rgba(244, 96, 54, 1)" stroke-width="2"></path><path d="M969.24-44.83C816.59-33.86 706.9 263.09 440.29 263.36 173.69 263.63 50.51 91.96-88.65 89.76" stroke="rgba(244, 96, 54, 1)" stroke-width="2"></path><path d="M1017.4-2.85C846.18 25.88 764.96 441.98 487.33 445.8 209.71 449.62 93.01 328.9-42.73 328.2" stroke="rgba(244, 96, 54, 1)" stroke-width="2"></path><path d="M957.62-63.45C784.35-44.55 674.05 334.07 385.13 334.44 96.2 334.81-32.18 98.47-187.37 93.64" stroke="rgba(244, 96, 54, 1)" stroke-width="2"></path><path d="M579.82-19.97C414.35 41.77 387.83 529.4 149.08 539.98-89.67 550.56-168.01 396.33-281.66 394.38" stroke="rgba(244, 96, 54, 1)" stroke-width="2"></path></g><defs><mask id="SvgjsMask4545"><rect width="1440" height="560" fill="#ffffff"></rect></mask><linearGradient x1="84.72%" y1="139.29%" x2="15.28%" y2="-39.29%" gradientUnits="userSpaceOnUse" id="SvgjsLinearGradient4546"><stop stop-color="rgba(14, 42, 71, 1)" offset="0.08"></stop><stop stop-color="rgba(9, 4, 70, 1)" offset="0.47"></stop></linearGradient></defs></svg>