<svg xmlns="http://www.w3.org/2000/svg" version="1.1" xmlns:xlink="http://www.w3.org/1999/xlink" xmlns:svgjs="http://svgjs.dev/svgjs" width="1440" height="560" preserveAspectRatio="none" viewBox="0 0 1440 560">
    <g mask="url(&quot;#SvgjsMask1124&quot;)" fill="none">
        <rect width="1440" height="560" x="0" y="0" fill="rgba(39, 38, 53, 1)"></rect>
        <path d="M0,318.477C82.662,325.37,166.533,412.415,238.17,370.599C308.863,329.334,275.127,215.562,306.108,139.795C335.297,68.411,411.118,17.534,414.048,-59.531C417.124,-140.452,375.739,-218.436,322.031,-279.042C268.645,-339.285,196.461,-389.864,116.176,-395.658C40.048,-401.152,-16.996,-328.738,-90.679,-308.825C-166.833,-288.244,-261.346,-329.921,-320.44,-277.663C-379.226,-225.677,-364.193,-131.585,-378.382,-54.403C-393.216,26.286,-437.597,109.686,-405.535,185.202C-373.369,260.961,-292.133,307.203,-213.942,332.9C-144.636,355.677,-72.701,312.415,0,318.477" fill="#191923"></path>
        <path d="M1440 1033.166C1527.014 1024.365 1601.1 971.413 1668.877 916.139 1730.804 865.636 1780.4769999999999 803.314 1811.923 729.852 1842.8310000000001 657.647 1840.055 579.869 1846.333 501.578 1854.511 399.597 1903.654 290.613 1854.335 200.97699999999998 1803.967 109.43599999999998 1696.722 48.73700000000002 1592.574 40.379999999999995 1492.495 32.349000000000046 1414.208 118.44799999999998 1322.039 158.26299999999998 1243.4180000000001 192.22500000000002 1158.04 204.462 1090.583 257.228 1012.4590000000001 318.337 930.957 387.171 906.51 483.296 881.236 582.671 907.068 691.076 957.5450000000001 780.33 1005.947 865.9159999999999 1092.212 920.0129999999999 1179.3020000000001 965.654 1260.455 1008.183 1348.843 1042.386 1440 1033.166" fill="#353348"></path>
    </g>
    <defs>
        <mask id="SvgjsMask1124">
            <rect width="1440" height="560" fill="#ffffff"></rect>
        </mask>
    </defs>
</svg>